<?xml version="1.0" standalone="no"?>
<!DOCTYPE svg PUBLIC "-//W3C//DTD SVG 20010904//EN"
 "http://www.w3.org/TR/2001/REC-SVG-20010904/DTD/svg10.dtd">
<svg version="1.0" xmlns="http://www.w3.org/2000/svg"
 width="400.000000pt" height="400.000000pt" viewBox="0 0 400.000000 400.000000"
 preserveAspectRatio="xMidYMid meet">
<metadata>
Created by potrace 1.11, written by Peter Selinger 2001-2013
</metadata>
<g transform="translate(0.000000,400.000000) scale(0.100000,-0.100000)"
fill="#000000" stroke="none">
<path d="M0 2000 l0 -2000 1988 1 c1093 1 1978 4 1968 6 -11 3 -28 16 -38 29
-10 13 -53 40 -96 61 -42 20 -91 52 -109 69 -22 22 -44 33 -71 37 -21 2 -44 7
-51 11 -23 14 -197 36 -291 36 -52 0 -109 4 -127 9 -22 7 -33 6 -37 -2 -3 -8
-5 -8 -5 -1 -1 7 -16 10 -38 8 -20 -1 -50 4 -65 12 -16 8 -37 14 -47 12 -10
-2 -29 2 -42 9 -40 19 -139 53 -139 47 0 -3 -7 2 -16 10 -9 9 -28 15 -42 14
-35 -2 -93 11 -111 26 -12 8 -13 8 -7 -2 6 -10 2 -10 -18 -1 -14 7 -23 16 -19
22 3 5 8 4 13 -3 5 -8 9 -7 13 4 4 11 1 16 -11 17 -9 0 -32 2 -50 4 -39 3 -77
34 -62 49 6 6 4 16 -8 30 -9 11 -12 17 -6 13 14 -8 49 34 46 55 -2 11 5 19 20
22 71 15 146 30 168 32 139 15 291 24 417 24 83 0 154 4 157 8 5 9 178 28 274
31 14 1 20 5 17 11 -7 12 274 7 373 -5 l52 -7 0 70 c0 59 -3 71 -17 75 -17 4
-17 5 0 6 23 1 22 28 -1 40 -16 8 -61 8 -82 1 -3 -2 -8 -2 -12 -1 -5 0 -8 -6
-8 -14 0 -8 9 -15 20 -15 11 0 20 -4 20 -10 0 -5 -18 -10 -40 -10 -40 0 -52
-12 -28 -26 24 -15 -35 -21 -237 -23 -110 -2 -207 -2 -215 -2 -126 7 -250 1
-277 -13 -27 -13 -73 -16 -312 -15 -226 1 -281 3 -281 14 0 28 -195 132 -280
150 -19 4 -53 16 -74 26 -22 10 -54 21 -72 25 -18 3 -32 11 -31 17 1 6 -12 12
-30 12 -17 1 -38 7 -47 14 -9 7 -22 11 -30 8 -8 -3 -19 0 -25 6 -5 7 -22 14
-37 15 -15 1 -31 8 -36 15 -6 9 -8 9 -8 0 0 -21 -26 -15 -45 11 -11 14 -24 22
-33 18 -10 -3 -13 -1 -8 6 4 7 -2 9 -18 6 -17 -3 -28 2 -35 13 -6 10 -11 13
-11 7 0 -15 -87 -9 -107 7 -8 7 -12 18 -9 26 3 7 1 13 -4 13 -6 0 -10 -4 -10
-9 0 -13 -63 -8 -78 7 -11 10 -11 12 0 13 7 0 3 4 -10 10 -13 5 -39 7 -58 4
-20 -2 -34 0 -34 7 0 7 -5 6 -15 -2 -18 -15 -20 1 -3 18 7 7 8 12 3 13 -46 2
-98 8 -116 14 -16 5 -19 4 -14 -5 6 -9 4 -11 -4 -5 -7 4 -10 16 -8 27 3 11 3
18 1 15 -3 -3 -21 1 -40 9 -19 8 -34 12 -34 9 0 -4 -9 0 -21 8 -11 8 -30 12
-41 9 -18 -4 -19 -3 -8 17 10 20 9 22 -7 19 -10 -2 -23 2 -28 9 -8 11 -17 10
-48 -5 -21 -10 -35 -21 -31 -25 4 -3 -4 -4 -17 -2 -13 3 -31 -3 -41 -12 -10
-9 -34 -18 -52 -20 -33 -3 -38 1 -108 92 -40 53 -91 120 -113 150 -64 87 -245
324 -301 395 -49 63 -51 67 -35 87 9 11 25 33 35 47 11 15 30 39 43 54 13 15
23 30 23 34 0 4 6 13 13 20 15 16 124 157 152 198 36 51 228 304 247 326 l20
22 60 -24 c33 -13 66 -21 72 -17 6 3 8 2 3 -2 -4 -5 32 -24 80 -43 112 -43
158 -62 207 -87 42 -21 38 -13 93 -202 11 -41 23 -63 33 -64 10 0 11 -2 2 -6
-9 -3 -11 -16 -6 -39 l6 -35 -33 15 c-66 29 -168 66 -181 66 -12 0 -47 -43
-108 -130 -8 -12 -37 -50 -63 -86 l-48 -64 23 -32 c12 -18 58 -81 101 -139
l78 -107 40 10 c21 6 39 14 39 18 0 4 15 11 33 14 18 3 50 15 71 26 37 18 38
18 43 0 5 -18 43 -36 43 -19 0 13 34 11 47 -2 8 -8 16 -8 30 0 10 6 13 11 5
11 -7 0 -10 5 -7 11 4 6 9 8 12 5 3 -3 12 1 19 9 13 12 21 11 61 -6 47 -20
103 -18 131 4 8 6 28 11 45 12 20 0 31 5 29 13 -1 6 3 12 9 12 5 0 7 4 4 10
-3 5 1 10 9 10 19 0 38 33 30 53 -3 8 -1 18 5 22 7 4 11 -7 11 -30 0 -28 5
-37 23 -44 12 -5 29 -6 37 -3 8 2 4 -4 -9 -13 l-24 -18 29 -12 c17 -7 33 -9
39 -4 11 11 92 11 120 0 39 -16 114 16 99 41 -3 4 4 8 15 8 11 0 24 -6 28 -13
4 -8 19 -17 32 -20 19 -5 30 0 48 21 19 23 23 38 23 98 0 93 -21 124 -84 124
-56 0 -83 -19 -67 -48 9 -17 18 -20 49 -16 32 4 34 3 13 -6 -58 -25 -181 -18
-181 11 0 12 27 12 50 -1 15 -8 21 -6 31 12 20 38 -8 47 -144 45 l-122 -2 -6
-50 c-3 -27 -7 -37 -7 -22 -4 68 -105 105 -152 55 l-20 -22 0 22 c0 18 -6 22
-29 22 -25 0 -31 -5 -36 -30 -4 -16 -11 -33 -17 -36 -7 -5 -8 -2 -3 6 4 7 2
16 -6 21 -11 7 -10 9 3 9 11 0 15 5 12 15 -5 13 -10 12 -26 -7 l-19 -22 -6 22
c-3 13 -14 22 -27 23 -17 1 -17 2 -3 6 9 2 15 9 12 14 -4 5 -1 9 5 9 6 0 9 4
6 8 -3 5 9 6 26 4 27 -4 29 -3 19 15 -10 20 -6 33 12 33 5 0 7 -7 3 -15 -3 -8
-1 -15 4 -15 5 0 9 11 8 25 -1 14 -6 25 -10 25 -12 0 -10 38 3 45 6 4 9 0 7
-11 -2 -15 4 -20 27 -22 22 -2 26 0 15 7 -12 9 -12 11 3 17 9 3 24 1 32 -6 8
-6 19 -9 26 -5 8 6 7 10 -2 16 -8 5 -9 9 -4 9 17 0 32 -14 39 -37 7 -21 16
-23 48 -9 9 4 21 5 26 2 6 -3 16 1 23 10 7 8 8 14 3 13 -17 -3 -54 13 -54 23
0 6 9 8 21 5 11 -3 35 2 52 12 38 21 70 23 63 4 -3 -7 -2 -13 3 -13 5 0 11 10
15 23 5 19 54 57 74 57 4 0 7 -17 6 -37 -2 -36 8 -53 32 -53 7 0 9 10 6 25 -2
15 0 25 7 25 7 0 10 -3 8 -7 -3 -5 -1 -19 4 -32 l9 -23 23 28 c12 16 21 32 19
36 -1 5 2 8 6 8 5 0 9 8 9 18 -1 68 5 115 12 98 7 -17 8 -18 14 -3 5 14 11 15
37 6 33 -12 63 -46 53 -62 -3 -5 4 -4 15 2 29 16 35 14 29 -9 -6 -23 8 -27 17
-5 6 16 26 21 26 6 0 -5 -7 -16 -15 -25 -9 -8 -11 -17 -6 -21 6 -3 8 -12 4
-20 -7 -19 11 -19 27 0 7 9 8 15 2 15 -13 0 -10 19 7 45 7 12 11 13 8 4 -4
-12 0 -15 20 -11 16 3 21 7 13 12 -17 11 -3 31 16 23 8 -3 24 3 36 13 12 11
18 13 14 7 -4 -8 -1 -13 8 -13 10 0 13 6 9 16 -4 12 -2 15 8 12 8 -3 13 -11
11 -17 -1 -6 5 -14 13 -17 8 -4 15 -10 15 -16 0 -5 -4 -7 -9 -3 -11 6 -36 -33
-27 -43 3 -3 6 0 6 6 0 7 8 12 18 12 14 0 15 -2 2 -10 -10 -6 -11 -10 -2 -10
6 0 12 -9 12 -20 0 -23 -3 -24 -33 -9 -21 11 -21 10 2 -15 14 -14 33 -26 44
-26 10 0 31 -8 45 -19 19 -13 42 -18 81 -17 64 1 75 17 27 36 -20 7 -37 19
-40 27 -3 7 -11 13 -19 13 -7 0 -18 5 -24 11 -13 13 -6 39 9 39 6 0 17 8 24
18 13 16 13 16 14 -3 0 -15 2 -17 9 -6 5 8 18 12 30 8 12 -3 21 -2 21 2 0 3
10 11 22 16 29 13 37 45 11 45 -10 0 -31 -7 -47 -15 -36 -19 -40 -19 -32 1 5
14 4 15 -9 4 -8 -7 -13 -16 -10 -20 3 -4 -8 -10 -24 -12 -21 -3 -28 -1 -24 9
3 8 -3 13 -17 13 -16 0 -20 -4 -16 -15 7 -19 -1 -19 -20 -1 -18 19 -18 26 1
26 8 0 15 5 15 11 0 5 5 7 10 4 9 -6 14 8 11 28 -1 4 8 3 20 -4 17 -9 23 -8
30 2 8 11 11 11 20 -4 7 -11 15 -15 22 -10 23 16 63 14 85 -5 12 -10 19 -21
16 -24 -3 -3 2 -8 11 -11 9 -4 15 -1 15 8 0 27 50 13 51 -14 0 -9 5 -4 11 12
5 15 17 27 26 27 33 0 99 -25 95 -36 -2 -6 3 -17 12 -24 20 -17 19 -30 -2 -28
-40 3 -73 -3 -85 -15 -7 -8 -20 -12 -30 -9 -10 2 -18 2 -18 -2 0 -9 60 -38 60
-29 0 5 5 1 10 -9 12 -20 48 -13 71 15 15 19 16 19 28 -10 7 -16 11 -34 10
-39 -3 -20 2 -24 20 -15 16 9 20 6 25 -24 4 -21 13 -35 21 -35 18 0 20 16 3
23 -7 3 -3 6 10 6 13 1 21 -3 18 -7 -3 -5 8 -9 24 -10 16 0 29 2 28 6 -1 4 2
15 6 24 9 19 30 15 61 -12 11 -9 28 -20 37 -23 12 -4 17 -14 14 -29 -3 -13 -5
-31 -5 -40 -1 -9 -9 -18 -18 -20 -13 -2 -10 -6 10 -15 l27 -13 0 45 c0 33 4
45 15 45 13 0 15 -21 15 -130 0 -109 -2 -130 -15 -130 -8 0 -15 5 -15 10 0 7
-6 7 -19 0 -54 -29 -111 12 -111 80 0 51 12 75 48 94 17 10 21 15 11 16 -9 0
-28 -9 -42 -20 -26 -20 -57 -27 -57 -12 0 12 -47 32 -75 32 -36 0 -71 -19 -86
-46 -7 -14 -20 -24 -28 -23 -38 3 -60 -13 -58 -42 2 -33 9 -36 32 -13 21 22
42 11 50 -26 8 -38 43 -62 91 -63 31 -1 42 5 71 38 19 22 33 32 33 23 0 -28
44 -58 88 -60 23 -1 39 -5 36 -9 -2 -4 4 -13 15 -19 18 -9 22 -5 40 35 l20 45
25 -25 c19 -19 35 -25 70 -25 60 0 76 8 76 37 0 24 -2 25 -43 19 -33 -5 -47
-3 -57 9 -11 13 -6 15 43 15 31 0 59 5 62 11 11 17 -4 74 -26 97 -30 33 -92
30 -124 -4 -26 -28 -32 -44 -15 -44 6 0 10 4 10 10 0 17 43 50 66 50 35 0 74
-37 74 -71 0 -29 0 -29 -60 -29 -33 0 -60 -3 -60 -8 0 -4 7 -18 16 -31 14 -20
23 -23 60 -18 32 3 44 1 44 -8 0 -29 -83 -34 -118 -7 -15 12 -25 33 -29 60 -4
27 -11 42 -20 42 -11 0 -14 15 -12 69 2 73 -3 91 -27 91 -13 0 -13 2 0 21 11
16 26 22 58 23 52 2 154 -21 186 -42 12 -8 25 -12 28 -9 3 3 16 2 29 -3 18 -7
25 -5 29 7 4 10 12 13 24 8 9 -4 25 -7 35 -7 9 0 17 -4 17 -10 0 -6 7 -5 17 3
11 10 14 10 9 2 -5 -9 0 -13 13 -13 15 0 19 4 14 17 -5 12 -3 14 8 7 8 -4 23
-10 34 -11 11 -2 25 -9 30 -17 12 -15 36 -9 48 11 7 11 12 11 23 2 12 -10 14
117 14 925 l0 936 -2000 0 -2000 0 0 -2000z m1611 727 c-13 -13 -26 -3 -16 12
3 6 11 8 17 5 6 -4 6 -10 -1 -17z m349 -87 c6 0 8 4 5 10 -3 6 1 7 10 3 12 -4
13 -8 5 -13 -8 -5 -3 -16 14 -37 14 -17 23 -33 20 -36 -3 -3 -1 -14 4 -23 7
-12 7 -25 1 -36 -7 -14 -6 -18 6 -18 9 0 13 -4 10 -10 -3 -5 0 -10 7 -10 9 0
9 -3 -2 -10 -13 -8 -12 -10 3 -10 9 0 17 -6 17 -12 0 -7 5 -5 11 6 9 15 13 16
20 5 15 -24 10 -31 -20 -27 -17 2 -28 1 -25 -4 3 -4 19 -8 36 -8 29 0 30 -1
16 -22 -9 -13 -25 -24 -37 -26 -12 -2 -27 -12 -34 -23 -6 -10 -17 -19 -24 -19
-7 0 -13 -5 -13 -11 0 -8 -4 -8 -12 -1 -7 5 -28 12 -46 14 -25 4 -37 0 -46
-14 -12 -17 -14 -17 -20 -3 -3 9 1 18 10 22 15 5 15 7 0 15 -9 5 -13 14 -10
20 5 7 2 8 -5 4 -7 -5 -10 -14 -7 -22 4 -11 -1 -13 -21 -9 -15 2 -32 0 -39 -6
-8 -6 -14 -6 -18 0 -3 5 7 12 24 16 30 7 42 36 20 50 -6 4 -7 -1 -3 -11 4 -12
3 -15 -5 -10 -7 4 -12 15 -12 26 0 10 -7 20 -15 24 -13 5 -13 2 1 -25 16 -32
14 -41 -11 -45 -11 -2 -13 11 -11 59 3 65 -13 114 -31 96 -8 -8 -13 -7 -18 0
-3 6 4 15 17 20 20 7 25 4 40 -23 9 -17 14 -35 10 -41 -3 -5 -1 -7 3 -2 5 4
10 26 12 50 3 29 12 50 30 67 25 25 25 25 20 3 -7 -31 4 -29 41 6 30 29 30 30
11 49 -23 26 -4 36 28 16 12 -8 27 -14 33 -14z m-140 -24 c0 -9 -30 -14 -35
-6 -4 6 3 10 14 10 12 0 21 -2 21 -4z m-130 -76 c0 -5 -5 -10 -11 -10 -5 0 -7
5 -4 10 3 6 8 10 11 10 2 0 4 -4 4 -10z m667 -72 c6 17 33 15 33 -3 0 -21 -27
-30 -45 -15 -12 10 -16 9 -21 -4 -7 -19 -23 -22 -20 -3 4 29 17 39 34 25 12
-10 16 -10 19 0z m-597 -12 c0 -3 -4 -8 -10 -11 -5 -3 -10 -1 -10 4 0 6 5 11
10 11 6 0 10 -2 10 -4z m-34 -46 c0 -12 -4 -16 -9 -11 -5 5 -6 14 -3 20 10 15
12 14 12 -9z m819 10 c3 -5 1 -10 -4 -10 -6 0 -11 5 -11 10 0 6 2 10 4 10 3 0
8 -4 11 -10z m-116 -35 c7 3 8 0 5 -9 -7 -19 -6 -19 -39 -6 -22 8 -24 12 -13
24 11 13 15 13 25 -1 6 -8 16 -12 22 -8z m-287 -32 c5 -57 -8 -83 -28 -56 -10
15 -10 21 4 36 11 13 13 20 5 28 -6 6 -9 18 -6 25 10 27 21 13 25 -33z m-1803
-40 c-80 -85 -78 -82 -115 -125 -29 -32 -54 -54 -54 -45 0 2 34 39 75 83 41
43 92 98 112 121 21 23 40 39 42 37 2 -2 -25 -34 -60 -71z m2438 55 c-3 -8 -6
-5 -6 6 -1 11 2 17 5 13 3 -3 4 -12 1 -19z m791 11 c-2 -6 -8 -10 -13 -10 -5
0 -11 4 -13 10 -2 6 4 11 13 11 9 0 15 -5 13 -11z m-1878 -3 c0 -3 -4 -8 -10
-11 -5 -3 -10 -1 -10 4 0 6 5 11 10 11 6 0 10 -2 10 -4z m170 -100 c0 -5 -7
-3 -15 4 -8 7 -12 17 -9 22 7 10 24 -9 24 -26z m-250 -19 c0 -8 -6 -14 -14
-14 -8 0 -12 6 -9 14 3 7 9 13 14 13 5 0 9 -6 9 -13z m2050 3 c0 -5 -4 -10
-10 -10 -5 0 -10 5 -10 10 0 6 5 10 10 10 6 0 10 -4 10 -10z m-1785 -10 c-3
-5 -11 -10 -16 -10 -6 0 -7 5 -4 10 3 6 11 10 16 10 6 0 7 -4 4 -10z m1935
-74 c0 -3 -4 -8 -10 -11 -5 -3 -10 -1 -10 4 0 6 5 11 10 11 6 0 10 -2 10 -4z
m-2337 -35 c-4 -3 -11 -10 -15 -15 -4 -4 -6 1 -5 12 1 12 6 18 15 15 7 -3 10
-9 5 -12z m37 -1 c0 -5 -5 -10 -11 -10 -5 0 -7 5 -4 10 3 6 8 10 11 10 2 0 4
-4 4 -10z m-215 -44 c28 -20 26 -83 -3 -105 -14 -10 -19 -20 -13 -26 10 -11
51 -83 51 -90 0 -3 -7 -5 -15 -5 -8 0 -27 22 -43 50 -22 41 -32 50 -54 50 -27
0 -28 -2 -28 -50 0 -27 -4 -50 -10 -50 -6 0 -10 47 -10 120 l0 120 53 0 c29 0
62 -6 72 -14z m188 -64 c15 -15 27 -38 27 -50 0 -20 -5 -22 -60 -22 -52 0 -60
-2 -60 -19 0 -30 26 -44 70 -38 29 4 40 1 40 -8 0 -27 -72 -34 -106 -10 -34
23 -48 68 -34 109 22 68 78 85 123 38z m96 -50 l27 -72 24 71 c22 64 42 91 56
77 4 -5 -37 -125 -58 -165 -6 -13 -17 -23 -23 -23 -13 0 -47 71 -60 123 -4 15
-11 30 -16 33 -16 9 -10 36 7 32 10 -2 27 -31 43 -76z m249 58 c12 -10 25 -32
28 -49 l7 -31 -62 0 c-53 0 -61 -2 -61 -19 0 -30 26 -44 70 -38 29 4 40 1 40
-8 0 -32 -79 -34 -114 -2 -38 34 -39 105 -1 142 29 30 62 31 93 5z m100 4 c8
-14 10 -14 21 0 13 16 42 21 54 10 10 -11 -4 -33 -18 -28 -7 3 -23 -4 -34 -15
-17 -17 -21 -34 -21 -81 0 -47 -3 -60 -15 -60 -12 0 -15 17 -15 95 0 91 8 114
28 79z m212 6 c22 -14 3 -25 -43 -25 -56 0 -55 -21 3 -48 34 -17 46 -28 48
-49 5 -43 -58 -73 -112 -52 -33 13 -15 29 31 29 62 0 64 21 6 49 -53 26 -67
61 -33 88 24 19 75 24 100 8z m162 -7 c14 -13 18 -31 18 -95 0 -70 -10 -100
-23 -65 -4 10 -7 10 -18 0 -33 -32 -99 -7 -99 37 0 40 24 60 71 60 26 0 39 4
39 14 0 24 -27 38 -60 31 -23 -5 -30 -3 -30 8 0 28 74 35 102 10z m870 -3 c50
-39 42 -137 -11 -160 -38 -15 -87 -5 -106 23 -25 35 -19 97 12 129 32 33 70
36 105 8z m-1802 5 c0 -2 -10 -10 -22 -16 -21 -11 -22 -11 -9 4 13 16 31 23
31 12z m640 -43 c0 -5 -13 -9 -30 -9 -16 0 -27 4 -24 9 7 11 54 11 54 0z m53
-57 c44 -18 51 -40 10 -31 -16 4 -35 8 -43 10 -8 1 -16 16 -18 32 -2 18 1 24
5 17 5 -7 25 -19 46 -28z m-303 -100 c0 -8 -4 -15 -10 -15 -5 0 -7 7 -4 15 4
8 8 15 10 15 2 0 4 -7 4 -15z m290 -5 c0 -5 -5 -10 -11 -10 -5 0 -7 5 -4 10 3
6 8 10 11 10 2 0 4 -4 4 -10z m-80 -4 c0 -2 -7 -7 -16 -10 -8 -3 -12 -2 -9 4
6 10 25 14 25 6z m-1700 -476 c0 -5 -2 -10 -4 -10 -3 0 -8 5 -11 10 -3 6 -1
10 4 10 6 0 11 -4 11 -10z m475 -70 c-3 -5 -10 -10 -16 -10 -5 0 -9 5 -9 10 0
6 7 10 16 10 8 0 12 -4 9 -10z m315 -40 c0 -5 -5 -10 -11 -10 -5 0 -7 5 -4 10
3 6 8 10 11 10 2 0 4 -4 4 -10z m-230 -60 c0 -5 -5 -10 -11 -10 -5 0 -7 5 -4
10 3 6 8 10 11 10 2 0 4 -4 4 -10z m1640 -710 c0 -5 -4 -10 -10 -10 -5 0 -10
5 -10 10 0 6 5 10 10 10 6 0 10 -4 10 -10z m-2202 -22 c-5 -13 -38 -20 -38 -8
0 5 8 11 18 13 9 3 19 5 20 6 2 0 2 -4 0 -11z m102 -3 c11 -13 7 -15 -23 -15
-20 0 -39 5 -43 12 -5 8 -2 9 9 5 10 -3 17 -2 17 3 0 15 26 12 40 -5z m-53
-47 c-3 -8 -6 -5 -6 6 -1 11 2 17 5 13 3 -3 4 -12 1 -19z"/>
<path d="M1870 2540 c-13 -8 -12 -10 3 -10 9 0 17 5 17 10 0 12 -1 12 -20 0z"/>
<path d="M1970 2470 c0 -35 4 -37 31 -11 l21 19 -20 11 c-30 16 -32 14 -32
-19z"/>
<path d="M1197 2084 c-4 -4 -7 -25 -7 -46 0 -38 0 -38 40 -38 29 0 42 5 50 20
12 23 -2 60 -23 60 -7 0 -21 3 -32 6 -11 3 -24 2 -28 -2z"/>
<path d="M1402 2018 c-24 -24 -13 -38 28 -38 33 0 40 4 40 19 0 29 -45 42 -68
19z"/>
<path d="M1752 2018 c-24 -24 -13 -38 28 -38 26 0 40 5 40 13 0 18 -21 37 -40
37 -9 0 -21 -5 -28 -12z m47 -12 c9 -11 6 -12 -15 -8 -19 3 -22 7 -12 13 16
11 14 11 27 -5z"/>
<path d="M2222 1948 c-23 -23 -14 -48 18 -48 28 0 50 22 50 49 0 15 -53 14
-68 -1z m34 -23 c-8 -8 -16 -15 -19 -15 -2 0 -4 7 -4 15 0 8 9 15 19 15 17 0
18 -2 4 -15z"/>
<path d="M3093 2024 c-18 -8 -26 -65 -14 -97 8 -21 17 -27 41 -27 25 0 33 6
45 32 25 60 -18 115 -72 92z m32 -30 c-35 -14 -48 -8 -22 11 11 8 26 11 35 7
13 -4 10 -9 -13 -18z m10 -70 c9 3 13 2 10 -4 -10 -15 -31 -12 -46 8 -13 15
-12 16 3 3 10 -7 25 -11 33 -7z"/>
<path d="M1020 2560 c52 -50 98 -90 102 -90 13 0 9 -20 -4 -21 -7 0 -40 -10
-73 -23 l-60 -23 45 -20 c25 -12 55 -24 67 -27 32 -10 93 -15 89 -7 -3 4 -1
13 4 21 7 12 12 12 28 -3 10 -9 23 -17 29 -17 5 0 21 -9 34 -21 21 -18 24 -18
27 -5 2 9 7 16 11 16 4 0 -2 38 -13 85 -11 47 -24 85 -29 85 -8 0 -95 36 -182
75 -16 7 -61 25 -100 39 l-70 26 95 -90z m155 -200 c-4 -6 -13 -5 -25 2 -14 9
-16 16 -8 25 8 10 13 9 25 -2 8 -8 12 -19 8 -25z"/>
<path d="M740 2515 c-36 -47 -70 -91 -75 -98 -6 -7 -27 -35 -47 -62 -36 -49
-36 -51 -22 -90 7 -22 14 -47 14 -56 0 -9 7 -22 16 -30 10 -8 13 -21 9 -36 -3
-13 -1 -23 5 -23 5 0 10 7 10 15 0 8 6 15 14 15 20 0 32 40 15 52 -9 6 -5 7
12 3 22 -6 26 -3 25 17 -1 12 4 23 9 23 6 0 16 4 23 8 10 7 11 2 7 -20 l-5
-28 13 28 c7 15 16 25 19 21 4 -3 14 6 23 20 10 14 32 43 51 63 19 20 33 38
31 39 -1 1 -33 -3 -71 -10 l-68 -13 6 37 c3 20 17 72 31 115 14 43 24 82 23
87 -2 5 -32 -30 -68 -77z"/>
<path d="M920 2355 c-12 -13 -19 -28 -15 -35 3 -6 2 -9 -3 -8 -11 4 -38 -28
-206 -252 -14 -18 66 27 161 91 75 51 91 57 90 37 -2 -60 5 -128 13 -128 6 0
10 6 10 13 0 7 9 19 20 27 11 8 29 31 40 52 16 30 16 37 4 42 -8 3 -14 10 -14
16 0 14 27 13 33 -2 3 -7 6 -4 6 7 0 11 -4 27 -9 35 -7 11 -2 21 17 38 26 22
26 23 7 37 -10 8 -24 15 -31 15 -6 0 -32 9 -56 19 l-45 19 -22 -23z"/>
<path d="M2892 2336 c7 -8 15 -12 17 -11 5 6 -10 25 -20 25 -5 0 -4 -6 3 -14z"/>
<path d="M2870 2308 c0 -9 5 -20 11 -23 17 -11 18 -2 3 19 -12 17 -14 17 -14
4z"/>
<path d="M2730 2271 c0 -6 10 -8 21 -6 33 6 36 15 6 15 -15 0 -27 -4 -27 -9z"/>
<path d="M495 2192 c-33 -42 -69 -89 -79 -105 l-19 -29 54 33 c30 18 56 36 59
39 3 4 20 15 38 25 31 19 41 38 23 49 -4 3 -6 16 -4 30 9 47 -14 34 -72 -42z"/>
<path d="M1065 2260 c26 -11 35 -12 35 -2 0 4 -12 8 -27 9 -24 1 -25 1 -8 -7z"/>
<path d="M2280 2255 c0 -9 5 -15 11 -13 6 2 11 8 11 13 0 5 -5 11 -11 13 -6 2
-11 -4 -11 -13z"/>
<path d="M2425 2249 l-20 -22 27 7 c23 5 26 4 21 -11 -6 -16 -5 -16 10 -4 21
16 22 31 3 31 -8 0 -16 5 -18 11 -2 6 -12 1 -23 -12z"/>
<path d="M2835 2259 c-4 -6 -3 -15 3 -21 6 -6 11 -4 15 6 7 18 -9 31 -18 15z"/>
<path d="M2380 2245 c0 -8 5 -15 10 -15 6 0 10 7 10 15 0 8 -4 15 -10 15 -5 0
-10 -7 -10 -15z"/>
<path d="M2496 2235 c-3 -8 0 -17 6 -21 6 -4 8 -3 4 4 -3 6 2 12 11 14 16 3
17 4 1 10 -10 4 -18 1 -22 -7z"/>
<path d="M2922 2222 c-26 -4 -20 -22 8 -22 20 0 36 16 23 22 -5 2 -18 2 -31 0z"/>
<path d="M725 2190 c-3 -5 -1 -10 4 -10 6 0 11 5 11 10 0 6 -2 10 -4 10 -3 0
-8 -4 -11 -10z"/>
<path d="M1680 2170 c0 -5 5 -10 10 -10 6 0 10 5 10 10 0 6 -4 10 -10 10 -5 0
-10 -4 -10 -10z"/>
<path d="M1780 2135 c0 -8 2 -15 4 -15 2 0 6 7 10 15 3 8 1 15 -4 15 -6 0 -10
-7 -10 -15z"/>
<path d="M2646 2143 c-4 -4 -24 -8 -44 -8 -29 0 -37 -4 -39 -20 -1 -15 -1 -16
3 -2 3 9 14 17 25 17 17 0 19 -8 21 -87 l2 -88 3 81 c3 70 6 83 23 87 10 2 23
0 28 -5 6 -6 12 -5 17 3 5 7 4 10 -3 5 -6 -3 -15 1 -19 9 -5 9 -13 12 -17 8z"/>
<path d="M3320 2140 c0 -5 7 -7 15 -4 8 4 15 8 15 10 0 2 -7 4 -15 4 -8 0 -15
-4 -15 -10z"/>
<path d="M2360 2000 l0 -140 68 0 c56 0 72 4 87 20 10 11 20 18 24 16 7 -5 6
67 -3 149 -7 64 -16 86 -16 41 0 -22 -4 -27 -16 -22 -9 3 -31 6 -50 6 -28 0
-34 4 -34 21 0 11 -4 17 -10 14 -5 -3 -10 -20 -10 -36 0 -26 2 -29 19 -19 60
31 111 -10 111 -91 0 -37 -5 -53 -22 -69 -24 -22 -58 -26 -89 -10 -13 7 -19 7
-19 0 0 -5 -7 -10 -15 -10 -13 0 -15 21 -15 131 0 126 1 131 20 126 11 -3 20
-1 20 4 0 5 -11 9 -25 9 l-25 0 0 -140z"/>
<path d="M2900 2123 c-8 -3 -27 -17 -42 -31 -16 -15 -28 -20 -28 -13 0 20 -23
7 -26 -14 -2 -11 2 -25 7 -32 6 -6 9 -22 6 -35 -4 -21 -4 -21 -6 4 -2 51 -80
85 -130 58 -10 -5 -26 -28 -35 -51 -14 -34 -15 -48 -5 -78 14 -45 45 -71 84
-70 30 1 30 1 -5 9 -47 11 -70 42 -70 97 0 35 6 49 26 68 31 29 74 32 96 8 9
-10 30 -49 48 -86 37 -77 64 -100 118 -100 60 0 82 11 82 39 0 24 -2 25 -44
19 -39 -6 -48 -4 -70 18 -30 30 -32 53 -11 103 15 35 16 36 66 32 41 -2 54 1
63 14 8 13 7 21 -1 29 -13 13 -100 22 -123 12z m109 -19 c2 -2 1 -10 -3 -19
-5 -13 -10 -14 -27 -5 -26 14 -58 7 -87 -20 -33 -31 -31 -102 3 -136 20 -20
34 -25 65 -23 43 3 62 -7 40 -21 -20 -13 -72 -13 -104 0 -34 12 -66 66 -66
109 0 53 36 108 79 119 31 8 88 6 100 -4z"/>
<path d="M3210 2092 c0 -28 2 -27 18 4 9 16 8 21 -4 21 -8 0 -14 -10 -14 -25z"/>
<path d="M2710 2090 c0 -5 7 -10 16 -10 8 0 12 5 9 10 -3 6 -10 10 -16 10 -5
0 -9 -4 -9 -10z"/>
<path d="M2563 2015 c0 -44 2 -61 4 -37 2 23 2 59 0 80 -2 20 -4 1 -4 -43z"/>
<path d="M2428 2023 c-11 -3 -18 -13 -17 -26 1 -16 2 -18 6 -5 6 22 40 33 58
18 9 -8 15 -8 15 -2 0 5 -7 13 -16 16 -17 6 -19 6 -46 -1z"/>
<path d="M2704 2022 c-6 -4 -13 -15 -17 -24 -5 -16 0 -18 38 -18 48 0 55 9 29
34 -17 17 -33 20 -50 8z m43 -18 c2 -5 -8 -10 -22 -10 -26 -2 -34 11 -12 19
16 7 30 3 34 -9z"/>
<path d="M3284 2004 c-14 -20 -15 -33 -8 -62 8 -32 13 -37 42 -40 27 -3 34 1
42 24 12 30 4 85 -14 96 -22 15 -46 8 -62 -18z m54 4 c20 -20 14 -34 -15 -32
-30 1 -43 22 -22 35 18 12 23 11 37 -3z m-11 -94 c-3 -3 -12 -4 -19 -1 -8 3
-5 6 6 6 11 1 17 -2 13 -5z"/>
<path d="M3486 2008 c-16 -23 -16 -23 25 -26 48 -4 57 2 43 26 -17 26 -50 26
-68 0z m49 1 c10 -14 1 -21 -19 -13 -9 3 -13 10 -10 15 7 12 21 11 29 -2z"/>
<path d="M2491 1964 c0 -11 3 -14 6 -6 3 7 2 16 -1 19 -3 4 -6 -2 -5 -13z"/>
<path d="M2680 1956 c0 -3 5 -17 10 -31 9 -25 14 -27 55 -23 47 3 61 -12 28
-31 -10 -6 -13 -11 -6 -11 26 0 43 14 43 36 0 18 -5 24 -22 24 -24 0 -63 20
-40 20 6 0 12 5 12 10 0 6 -18 10 -40 10 -22 0 -40 -2 -40 -4z"/>
<path d="M2790 1950 c0 -5 5 -10 10 -10 6 0 10 5 10 10 0 6 -4 10 -10 10 -5 0
-10 -4 -10 -10z"/>
<path d="M752 1868 c66 -86 85 -110 129 -156 14 -15 31 -37 38 -49 14 -27 61
-31 85 -8 8 8 21 15 30 15 25 0 66 22 66 37 0 7 -8 13 -17 13 -20 0 -46 47
-32 56 5 3 9 1 9 -4 0 -5 11 -14 24 -20 20 -9 10 10 -45 88 -39 55 -74 102
-78 105 -5 3 -9 -23 -10 -57 0 -34 -5 -66 -10 -71 -6 -6 -47 13 -108 50 -152
93 -150 93 -81 1z"/>
<path d="M414 1914 c10 -16 44 -60 75 -99 30 -38 57 -72 58 -74 7 -10 21 16
27 51 6 35 4 39 -26 57 -18 11 -37 24 -43 28 -5 5 -32 22 -60 38 l-50 29 19
-30z"/>
<path d="M2412 1925 c3 -16 11 -20 38 -20 24 0 35 5 36 15 0 9 -1 10 -3 3 -7
-19 -50 -16 -63 5 -10 15 -10 15 -8 -3z"/>
<path d="M2563 1898 c1 -26 7 -33 25 -34 17 -1 18 -1 3 3 -12 3 -22 15 -25 34
-6 28 -6 27 -3 -3z"/>
<path d="M644 1863 c4 -6 2 -14 -4 -18 -5 -3 -10 -15 -10 -26 0 -10 -4 -19
-10 -19 -5 0 -10 -9 -10 -19 0 -11 -4 -21 -8 -23 -5 -1 -12 -17 -15 -34 -5
-28 1 -42 56 -111 34 -43 85 -109 112 -146 27 -38 51 -63 53 -58 2 6 -9 50
-24 98 -14 48 -30 101 -35 116 l-8 28 57 -7 c31 -3 62 -10 68 -15 6 -5 14 -6
17 -3 3 4 -12 27 -33 53 -22 25 -48 57 -60 71 -17 21 -19 22 -15 5 3 -11 -1
-6 -9 10 l-15 30 -1 -27 c0 -41 -23 -26 -50 32 -13 28 -26 48 -28 45 -3 -3
-11 3 -19 13 -8 9 -12 12 -9 5z m133 -155 c-3 -8 -6 -5 -6 6 -1 11 2 17 5 13
3 -3 4 -12 1 -19z"/>
<path d="M720 1780 c0 -5 5 -10 10 -10 6 0 10 5 10 10 0 6 -4 10 -10 10 -5 0
-10 -4 -10 -10z"/>
<path d="M1250 1664 c-25 -25 -60 -32 -60 -13 0 6 7 8 16 5 15 -6 15 -4 3 10
-12 14 -14 14 -24 0 -9 -12 -14 -13 -23 -4 -9 9 -19 8 -41 -5 -16 -9 -39 -17
-51 -17 -11 0 -18 -4 -15 -10 3 -6 -4 -10 -17 -10 -43 0 -52 -16 -16 -29 18
-7 49 -20 70 -28 l36 -15 -60 -57 c-33 -31 -78 -73 -101 -93 -23 -21 -38 -38
-35 -38 9 0 317 132 341 146 11 6 24 33 32 65 7 30 18 68 23 85 9 29 8 30 -22
32 -21 1 -39 -7 -56 -24z m-40 -39 c0 -7 -30 -13 -34 -7 -3 4 4 9 15 9 10 1
19 0 19 -2z"/>
<path d="M1150 1379 c0 -5 5 -9 11 -9 6 0 9 -7 6 -14 -4 -10 -1 -13 9 -9 21 8
17 30 -6 36 -11 3 -20 1 -20 -4z"/>
<path d="M1135 1350 c-3 -5 -1 -10 4 -10 6 0 11 5 11 10 0 6 -2 10 -4 10 -3 0
-8 -4 -11 -10z"/>
<path d="M3470 874 c0 -10 27 -33 33 -28 9 10 -4 34 -19 34 -8 0 -14 -3 -14
-6z"/>
<path d="M3647 873 c-10 -9 -9 -23 1 -23 5 0 9 7 9 15 0 17 -1 18 -10 8z"/>
<path d="M2513 510 c0 -16 1 -30 3 -30 1 0 7 14 13 30 8 23 7 30 -3 30 -7 0
-13 -12 -13 -30z"/>
</g>
</svg>
